# xmcd
#
# Track frame offsets: 
#        150
#        10788
#        20603
#        32823
#        44879
#        55536
#        70509
#        83901
#        95941
#        105836
#        116109
#        125884
#        138807
#        151070
#        162337
#        172279
#        184525
#        199350
#        213132
#        230385
#        244083
#        259578
#        275493
#        292728
#        311604
#        327679
#
# Disc length: 4641 seconds
#
# Revision: 0
# Processed by: cddbd v1.5.2PL0 Copyright (c) Steve Scherf et al.
# Submitted via: ExactAudioCopyFreeDBPlugin 1.0
#
DISCID=74121f1a
DTITLE=Ray Charles - 1962 - The Complete Country and Western Recordings-
DTITLE=1959-1986 Cd 2
DYEAR=1962
DGENRE=
TTITLE0=I'm Movin' On
TTITLE1=Busted
TTITLE2=No One to Cry To
TTITLE3=Move It on Over
TTITLE4=Love's Gonna Live Here (Swingova)
TTITLE5=I'm a Fool to Care
TTITLE6=Crying Time 
TTITLE7=Together Again
TTITLE8=I've Got a Tiger by the Tail (Swingova)
TTITLE9=I Don't Care
TTITLE10=Blue Moon of Kentucky (Swingova)
TTITLE11=Don't Let Her Know
TTITLE12=Please Say You're Fooling
TTITLE13=She's Lonesome Again
TTITLE14=A Born Loser
TTITLE15=A Girl I Used to Know
TTITLE16=Here We Go Again
TTITLE17=When I Stop Dreamin'
TTITLE18=If You Were Mine
TTITLE19=Your Love Is So Doggone Good
TTITLE20=Don't Change on Me
TTITLE21=Till I Can't Take It Anymore
TTITLE22=You've Still Got a Place in My Heart
TTITLE23=I Keep It Hid
TTITLE24=Sweet Memories
TTITLE25=Good Morning Dear
EXTD=
EXTT0=
EXTT1=
EXTT2=
EXTT3=
EXTT4=
EXTT5=
EXTT6=
EXTT7=
EXTT8=
EXTT9=
EXTT10=
EXTT11=
EXTT12=
EXTT13=
EXTT14=
EXTT15=
EXTT16=
EXTT17=
EXTT18=
EXTT19=
EXTT20=
EXTT21=
EXTT22=
EXTT23=
EXTT24=
EXTT25=
PLAYORDER=
